<svg width="48" height="48" viewBox="0 0 48 48" fill="none" xmlns="http://www.w3.org/2000/svg">
<g id="icons8-node-js 1">
<path id="Vector" d="M24.007 45.4186C23.433 45.4186 22.864 45.2686 22.361 44.9786L17.121 41.8756C16.338 41.4376 16.72 41.2826 16.978 41.1936C18.022 40.8286 18.233 40.7456 19.347 40.1126C19.464 40.0456 19.617 40.0696 19.737 40.1406L23.763 42.5296C23.908 42.6086 24.115 42.6086 24.249 42.5296L39.946 33.4686C40.091 33.3856 40.186 33.2176 40.186 33.0446V14.9316C40.186 14.7506 40.092 14.5896 39.943 14.4996L24.253 5.44558C24.108 5.35958 23.915 5.35958 23.77 5.44558L8.082 14.4986C7.93 14.5846 7.833 14.7536 7.833 14.9266V33.0406C7.833 33.2136 7.927 33.3786 8.077 33.4606L12.376 35.9436C14.71 37.1106 16.136 35.7356 16.136 34.3526V16.4756C16.136 16.2206 16.336 16.0236 16.592 16.0236H18.58C18.828 16.0236 19.032 16.2196 19.032 16.4756V34.3616C19.032 37.4736 17.335 39.2616 14.384 39.2616C13.476 39.2616 12.761 39.2616 10.765 38.2796L6.647 35.9066C5.629 35.3166 5 34.2156 5 33.0416V14.9276C5 13.7486 5.629 12.6486 6.646 12.0666L22.36 3.00158C23.354 2.43958 24.674 2.43958 25.661 3.00158L41.355 12.0706C42.367 12.6556 43 13.7526 43 14.9316V33.0456C43 34.2206 42.367 35.3166 41.354 35.9066L25.66 44.9706C25.157 45.2616 24.587 45.4106 24.006 45.4106" fill="#21A366"/>
<path id="Vector_2" d="M28.856 32.9367C21.988 32.9367 20.548 29.7837 20.548 27.1397C20.548 26.8887 20.751 26.6877 21.003 26.6877H23.031C23.255 26.6877 23.444 26.8507 23.479 27.0717C23.785 29.1377 24.697 30.1797 28.85 30.1797C32.158 30.1797 33.565 29.4327 33.565 27.6777C33.565 26.6677 33.164 25.9177 28.025 25.4147C23.726 24.9907 21.07 24.0437 21.07 20.6057C21.07 17.4387 23.742 15.5527 28.217 15.5527C33.243 15.5527 35.734 17.2977 36.048 21.0457C36.06 21.1757 36.013 21.3007 35.926 21.3957C35.84 21.4857 35.718 21.5407 35.592 21.5407H33.553C33.341 21.5407 33.156 21.3917 33.113 21.1867C32.622 19.0137 31.435 18.3187 28.209 18.3187C24.598 18.3187 24.178 19.5757 24.178 20.5187C24.178 21.6617 24.673 21.9957 29.545 22.6407C34.37 23.2807 36.661 24.1847 36.661 27.5757C36.661 30.9937 33.808 32.9547 28.834 32.9547" fill="#21A366"/>
</g>
</svg>
