<svg width="48" height="48" viewBox="0 0 48 48" fill="none" xmlns="http://www.w3.org/2000/svg">
<g id="icons8-sass 1">
<path id="Vector" d="M39.867 25.9556C38.329 25.9636 36.997 26.3326 35.881 26.8836C35.473 26.0686 35.059 25.3516 34.99 24.8186C34.909 24.1966 34.815 23.8246 34.913 23.0836C35.011 22.3426 35.44 21.2926 35.434 21.2136C35.428 21.1346 35.338 20.7576 34.451 20.7506C33.564 20.7446 32.805 20.9216 32.716 21.1556C32.627 21.3896 32.456 21.9166 32.35 22.4666C32.195 23.2706 30.579 26.1396 29.662 27.6396C29.362 27.0536 29.107 26.5376 29.054 26.1296C28.973 25.5076 28.879 25.1356 28.977 24.3946C29.075 23.6536 29.504 22.6036 29.498 22.5246C29.492 22.4456 29.402 22.0686 28.515 22.0616C27.628 22.0556 26.869 22.2326 26.78 22.4666C26.691 22.7006 26.595 23.2476 26.414 23.7776C26.232 24.3066 24.085 29.0916 23.522 30.3326C23.235 30.9646 22.986 31.4726 22.81 31.8186L22.809 31.8166C22.809 31.8166 22.798 31.8396 22.78 31.8786C22.629 32.1736 22.54 32.3366 22.54 32.3366C22.54 32.3366 22.541 32.3386 22.543 32.3426C22.423 32.5596 22.295 32.7606 22.232 32.7606C22.188 32.7606 22.099 32.1836 22.251 31.3916C22.571 29.7316 23.338 27.1436 23.331 27.0536C23.327 27.0076 23.474 26.5566 22.83 26.3206C22.204 26.0916 21.981 26.4736 21.924 26.4746C21.869 26.4756 21.828 26.6096 21.828 26.6096C21.828 26.6096 22.525 23.6986 20.498 23.6986C19.23 23.6986 17.474 25.0856 16.609 26.3426C16.063 26.6406 14.894 27.2786 13.655 27.9596C13.179 28.2216 12.693 28.4886 12.232 28.7426C12.201 28.7076 12.169 28.6736 12.137 28.6386C9.67801 26.0156 5.13401 24.1606 5.32601 20.6336C5.39601 19.3516 5.84201 15.9756 14.059 11.8816C20.79 8.52757 26.179 9.45057 27.11 11.4956C28.44 14.4186 24.23 19.8496 17.24 20.6336C14.577 20.9326 13.174 19.8996 12.825 19.5156C12.458 19.1106 12.403 19.0926 12.266 19.1686C12.043 19.2926 12.184 19.6496 12.266 19.8626C12.475 20.4056 13.331 21.3686 14.791 21.8486C16.076 22.2706 19.203 22.5016 22.984 21.0386C27.22 19.4006 30.527 14.8426 29.555 11.0336C28.567 7.15957 22.143 5.88556 16.063 8.04556C12.44 9.33156 8.52301 11.3496 5.70601 13.9836C2.35701 17.1156 1.82301 19.8426 2.04301 20.9816C2.82501 25.0296 8.40401 27.6656 10.638 29.6186C10.528 29.6796 10.424 29.7366 10.33 29.7886C9.21001 30.3426 4.95701 32.5686 3.89301 34.9196C2.68601 37.5866 4.08501 39.5006 5.01101 39.7586C7.88001 40.5566 10.824 39.1206 12.407 36.7606C13.989 34.4016 13.796 31.3286 13.07 29.9266C13.061 29.9096 13.051 29.8926 13.042 29.8746C13.331 29.7036 13.626 29.5296 13.918 29.3576C14.488 29.0226 15.048 28.7106 15.533 28.4466C15.261 29.1906 15.062 30.0836 14.959 31.3726C14.837 32.8866 15.458 34.8436 16.27 35.6136C16.628 35.9526 17.058 35.9606 17.33 35.9606C18.275 35.9606 18.706 35.1746 19.181 34.2446C19.763 33.1046 20.28 31.7766 20.28 31.7766C20.28 31.7766 19.632 35.3626 21.398 35.3626C22.042 35.3626 22.689 34.5276 22.978 34.1026C22.979 34.1076 22.979 34.1096 22.979 34.1096C22.979 34.1096 22.996 34.0816 23.029 34.0266C23.096 33.9246 23.134 33.8596 23.134 33.8596C23.134 33.8596 23.135 33.8526 23.137 33.8406C23.396 33.3916 23.97 32.3676 24.83 30.6786C25.942 28.4966 27.008 25.7626 27.008 25.7626C27.008 25.7626 27.107 26.4306 27.432 27.5366C27.623 28.1866 28.029 28.9056 28.35 29.5956C28.092 29.9536 27.934 30.1586 27.934 30.1586C27.934 30.1586 27.935 30.1626 27.938 30.1696C27.732 30.4436 27.501 30.7386 27.259 31.0266C26.381 32.0716 25.336 33.2656 25.196 33.6096C25.031 34.0156 25.07 34.3136 25.389 34.5546C25.622 34.7296 26.036 34.7576 26.469 34.7286C27.258 34.6756 27.812 34.4796 28.086 34.3606C28.513 34.2096 29.01 33.9726 29.476 33.6296C30.337 32.9966 30.856 32.0916 30.806 30.8916C30.778 30.2306 30.568 29.5756 30.301 28.9576C30.379 28.8456 30.457 28.7316 30.536 28.6176C31.893 26.6336 32.946 24.4536 32.946 24.4536C32.946 24.4536 33.045 25.1216 33.37 26.2276C33.534 26.7866 33.859 27.3976 34.151 27.9956C32.875 29.0326 32.084 30.2376 31.809 31.0276C31.301 32.4896 31.699 33.1516 32.445 33.3026C32.783 33.3706 33.261 33.2156 33.62 33.0636C34.067 32.9156 34.604 32.6686 35.106 32.2996C35.967 31.6666 36.795 30.7806 36.745 29.5816C36.722 29.0356 36.574 28.4936 36.373 27.9736C37.455 27.5226 38.855 27.2726 40.639 27.4806C44.466 27.9276 45.216 30.3166 45.073 31.3166C44.929 32.3166 44.127 32.8666 43.858 33.0326C43.59 33.1986 43.508 33.2566 43.53 33.3796C43.563 33.5586 43.687 33.5526 43.916 33.5136C44.231 33.4606 45.925 32.7006 45.998 30.8546C46.089 28.5086 43.844 25.9346 39.867 25.9556ZM10.37 35.8996C9.10201 37.2826 7.33201 37.8046 6.57201 37.3646C5.75201 36.8896 6.07701 34.8536 7.63201 33.3856C8.58001 32.4916 9.80401 31.6676 10.616 31.1606C10.801 31.0496 11.072 30.8866 11.402 30.6886C11.457 30.6576 11.488 30.6406 11.488 30.6406L11.487 30.6386C11.551 30.6006 11.616 30.5616 11.683 30.5206C12.25 32.6096 11.701 34.4486 10.37 35.8996ZM19.605 29.6226C19.164 30.6986 18.24 33.4526 17.677 33.3046C17.194 33.1776 16.9 31.0846 17.581 29.0246C17.923 27.9876 18.655 26.7486 19.085 26.2676C19.777 25.4936 20.539 25.2406 20.724 25.5546C20.959 25.9546 19.882 28.9476 19.605 29.6226ZM27.234 33.2626C27.047 33.3606 26.875 33.4216 26.796 33.3746C26.737 33.3396 26.873 33.2106 26.873 33.2106C26.873 33.2106 27.827 32.1836 28.203 31.7166C28.422 31.4446 28.675 31.1216 28.951 30.7616C28.953 30.7976 28.954 30.8336 28.954 30.8686C28.952 32.0986 27.764 32.9286 27.234 33.2626ZM33.111 31.9226C32.971 31.8236 32.995 31.5026 33.454 30.5016C33.634 30.1086 34.046 29.4476 34.76 28.8156C34.843 29.0756 34.893 29.3246 34.892 29.5566C34.883 31.1046 33.779 31.6826 33.111 31.9226Z" fill="#F06292"/>
</g>
</svg>
