<svg width="42" height="42" viewBox="0 0 42 42" fill="none" xmlns="http://www.w3.org/2000/svg">
<g id="mongodb-svgrepo-com 1" clip-path="url(#clip0_1835_107)">
<g id="databases-and-servers/databases/mongodb">
<g id="container">
<path id="mask" d="M33.3698 0.575195H8.63011C4.18157 0.575195 0.575317 4.18145 0.575317 8.62999V33.3697C0.575317 37.8183 4.18157 41.4245 8.63011 41.4245H33.3698C37.8184 41.4245 41.4246 37.8183 41.4246 33.3697V8.62999C41.4246 4.18145 37.8184 0.575195 33.3698 0.575195Z" fill="white" stroke="#134514" stroke-width="21.9178"/>
</g>
<g id="Group">
<path id="Shape" d="M21.5722 35.515L20.7964 35.2499C20.7964 35.2499 20.8911 31.2947 19.4716 31.0109C18.5255 29.9131 19.6233 -15.5445 23.0297 30.8593C23.0297 30.8593 21.8562 31.4459 21.6481 32.4491C21.4208 33.4333 21.5722 35.515 21.5722 35.515Z" fill="#A6A385"/>
<path id="Shape_2" d="M21.9887 31.692C21.9887 31.692 28.7829 27.2256 27.1929 17.9333C25.6602 11.1774 22.0455 8.96321 21.648 8.11152C21.2128 7.50593 20.7963 6.44629 20.7963 6.44629L21.0804 25.2384C21.0804 25.2575 20.4934 30.9915 21.9887 31.692Z" fill="#499D4A"/>
<path id="Shape_3" d="M20.3991 31.9376C20.3991 31.9376 14.0212 27.5848 14.3998 19.9204C14.7593 12.2559 19.2634 8.4898 20.1339 7.80854C20.7018 7.20294 20.7207 6.97571 20.7586 6.37012C21.1561 7.22181 21.0804 19.1067 21.137 20.507C21.3072 25.9005 20.8343 30.9159 20.3991 31.9376Z" fill="#58AA50"/>
</g>
</g>
</g>
<defs>
<clipPath id="clip0_1835_107">
<rect width="42" height="42" fill="white"/>
</clipPath>
</defs>
</svg>
