<svg width="198" height="24" viewBox="0 0 198 24" fill="none" xmlns="http://www.w3.org/2000/svg">
<path d="M10.552 8.184L2.416 11.952L10.552 15.792V17.688L0.544 12.768V11.184L10.552 6.312V8.184ZM20.9337 5.76C23.0137 5.76 24.0537 6.936 24.0537 9.288C24.0537 11.4 23.5417 13.376 22.5177 15.216C22.0377 16.112 21.4057 16.84 20.6217 17.4C19.8377 17.96 18.9817 18.24 18.0537 18.24C17.1257 18.24 16.2137 18.128 15.3177 17.904L14.8377 17.784L13.5657 23.328H11.7897L15.7737 6H17.5257L17.0697 8.136C17.2137 7.96 17.4057 7.744 17.6457 7.488C17.8857 7.216 18.3417 6.864 19.0137 6.432C19.7017 5.984 20.3417 5.76 20.9337 5.76ZM20.4297 7.32C19.9817 7.32 19.4377 7.56 18.7977 8.04C18.1577 8.504 17.6377 8.976 17.2377 9.456L16.6137 10.152L15.1737 16.32C16.2137 16.56 17.1657 16.68 18.0297 16.68C18.8937 16.68 19.6537 16.256 20.3097 15.408C20.9817 14.56 21.4617 13.592 21.7497 12.504C22.0537 11.416 22.2057 10.368 22.2057 9.36C22.2057 8 21.6137 7.32 20.4297 7.32ZM28.6143 18.24C26.5663 18.24 25.5423 17.048 25.5423 14.664C25.5423 13.336 25.7503 12.016 26.1663 10.704C26.5983 9.376 27.2943 8.224 28.2543 7.248C29.2143 6.256 30.3263 5.76 31.5903 5.76C32.5663 5.76 33.9023 5.904 35.5983 6.192L36.5103 6.36L34.6863 14.16C34.4623 15.056 34.2703 16.112 34.1103 17.328L34.0143 17.952L32.2623 18.024C32.4863 16.648 32.6303 15.792 32.6943 15.456C32.6143 15.6 32.3743 15.88 31.9743 16.296C31.5903 16.696 31.2463 17.024 30.9423 17.28C30.6383 17.52 30.2703 17.744 29.8383 17.952C29.4063 18.144 28.9983 18.24 28.6143 18.24ZM34.4223 7.656C33.3023 7.432 32.3343 7.32 31.5183 7.32C30.7183 7.32 29.9823 7.736 29.3103 8.568C28.6383 9.384 28.1503 10.344 27.8463 11.448C27.5423 12.536 27.3903 13.512 27.3903 14.376C27.3903 15.24 27.5263 15.84 27.7983 16.176C28.0703 16.512 28.4783 16.68 29.0223 16.68C29.5663 16.68 30.1583 16.424 30.7983 15.912C31.4543 15.384 31.9983 14.856 32.4303 14.328L33.0543 13.536L34.4223 7.656ZM39.9903 15.576C39.9903 16.312 40.3903 16.68 41.1903 16.68L43.0383 16.536L42.9183 17.904C42.0863 18.128 41.2943 18.24 40.5423 18.24C39.7903 18.24 39.1983 18.04 38.7663 17.64C38.3343 17.24 38.1183 16.704 38.1183 16.032C38.1183 15.36 38.2463 14.512 38.5023 13.488L39.8943 7.56H38.3103L38.7183 6H40.2783L41.1183 2.448H42.9183L42.0543 6H45.4143L45.0303 7.56H41.6703L40.2783 13.584C40.0863 14.352 39.9903 15.016 39.9903 15.576ZM44.6309 18L47.4149 6H49.1909L48.7589 7.776C50.2469 6.704 51.6949 6.024 53.1029 5.736L52.6229 7.584C51.7589 7.808 50.5989 8.288 49.1429 9.024L48.4229 9.384L46.4309 18H44.6309ZM52.2246 18L54.9846 6H56.7846L54.0006 18H52.2246ZM55.5366 3.504L56.0646 1.344H57.8646L57.3606 3.504H55.5366ZM64.1059 5.76C64.8579 5.76 65.7139 5.872 66.6739 6.096L67.1059 6.216L66.6499 7.608C65.6099 7.416 64.7459 7.32 64.0579 7.32C63.0979 7.32 62.2739 7.672 61.5859 8.376C60.2899 9.672 59.6419 11.632 59.6419 14.256C59.6419 15.056 59.8339 15.664 60.2179 16.08C60.6019 16.48 61.2339 16.68 62.1139 16.68C62.7379 16.68 63.4739 16.592 64.3219 16.416L64.8019 16.32L64.6819 17.736C63.5779 18.072 62.4659 18.24 61.3459 18.24C60.2419 18.24 59.3699 17.928 58.7299 17.304C58.1059 16.664 57.7939 15.76 57.7939 14.592C57.7939 11.168 58.7219 8.648 60.5779 7.032C61.5539 6.184 62.7299 5.76 64.1059 5.76ZM68.6965 18H66.8965L70.8805 0.767999H72.6805L70.3525 10.8L71.8885 10.728L76.2325 6H78.3205L73.2325 11.568L75.5125 18H73.6165L71.6005 12.264L69.9925 12.312L68.6965 18ZM77.104 19.896H87.856L87.448 21.648H76.72L77.104 19.896ZM99.3556 5.76C101.436 5.76 102.476 6.936 102.476 9.288C102.476 11.4 101.964 13.376 100.94 15.216C100.46 16.112 99.8276 16.84 99.0436 17.4C98.2596 17.96 97.4036 18.24 96.4756 18.24C95.5476 18.24 94.6356 18.128 93.7396 17.904L93.2596 17.784L91.9876 23.328H90.2116L94.1956 6H95.9476L95.4916 8.136C95.6356 7.96 95.8276 7.744 96.0676 7.488C96.3076 7.216 96.7636 6.864 97.4356 6.432C98.1236 5.984 98.7636 5.76 99.3556 5.76ZM98.8516 7.32C98.4036 7.32 97.8596 7.56 97.2196 8.04C96.5796 8.504 96.0596 8.976 95.6596 9.456L95.0356 10.152L93.5956 16.32C94.6356 16.56 95.5876 16.68 96.4516 16.68C97.3156 16.68 98.0756 16.256 98.7316 15.408C99.4036 14.56 99.8836 13.592 100.172 12.504C100.476 11.416 100.628 10.368 100.628 9.36C100.628 8 100.036 7.32 98.8516 7.32ZM107.036 18.24C104.988 18.24 103.964 17.048 103.964 14.664C103.964 13.336 104.172 12.016 104.588 10.704C105.02 9.376 105.716 8.224 106.676 7.248C107.636 6.256 108.748 5.76 110.012 5.76C110.988 5.76 112.324 5.904 114.02 6.192L114.932 6.36L113.108 14.16C112.884 15.056 112.692 16.112 112.532 17.328L112.436 17.952L110.684 18.024C110.908 16.648 111.052 15.792 111.116 15.456C111.036 15.6 110.796 15.88 110.396 16.296C110.012 16.696 109.668 17.024 109.364 17.28C109.06 17.52 108.692 17.744 108.26 17.952C107.828 18.144 107.42 18.24 107.036 18.24ZM112.844 7.656C111.724 7.432 110.756 7.32 109.94 7.32C109.14 7.32 108.404 7.736 107.732 8.568C107.06 9.384 106.572 10.344 106.268 11.448C105.964 12.536 105.812 13.512 105.812 14.376C105.812 15.24 105.948 15.84 106.22 16.176C106.492 16.512 106.9 16.68 107.444 16.68C107.988 16.68 108.58 16.424 109.22 15.912C109.876 15.384 110.42 14.856 110.852 14.328L111.476 13.536L112.844 7.656ZM117.164 6H118.94L119.132 16.464H119.876L125.084 6H126.932L120.836 18H117.476L117.164 6ZM126.407 18L130.391 0.767999H132.167L128.207 18H126.407ZM131.467 18L134.227 6H136.027L133.243 18H131.467ZM134.779 3.504L135.307 1.344H137.107L136.603 3.504H134.779ZM140.012 18.24C139.084 18.24 138.38 17.968 137.9 17.424C137.42 16.88 137.18 16.176 137.18 15.312C137.18 14.448 137.34 13.376 137.66 12.096L139.076 6H140.852L139.46 11.976C139.156 13.192 139.004 14.152 139.004 14.856C139.004 16.056 139.548 16.656 140.636 16.656C141.116 16.656 141.66 16.432 142.268 15.984C142.892 15.536 143.388 15.088 143.756 14.64L144.332 13.968L146.18 6H147.956L145.196 18H143.444L143.876 15.912C143.732 16.088 143.54 16.304 143.3 16.56C143.076 16.816 142.62 17.16 141.932 17.592C141.26 18.024 140.62 18.24 140.012 18.24ZM155.301 5.76C156.053 5.76 156.909 5.872 157.869 6.096L158.301 6.216L157.845 7.608C156.805 7.416 155.941 7.32 155.253 7.32C154.293 7.32 153.469 7.672 152.781 8.376C151.485 9.672 150.837 11.632 150.837 14.256C150.837 15.056 151.029 15.664 151.413 16.08C151.797 16.48 152.429 16.68 153.309 16.68C153.933 16.68 154.669 16.592 155.517 16.416L155.997 16.32L155.877 17.736C154.773 18.072 153.661 18.24 152.541 18.24C151.437 18.24 150.565 17.928 149.925 17.304C149.301 16.664 148.989 15.76 148.989 14.592C148.989 11.168 149.917 8.648 151.773 7.032C152.749 6.184 153.925 5.76 155.301 5.76ZM166.06 5.76C166.988 5.76 167.692 6.032 168.172 6.576C168.652 7.12 168.892 7.808 168.892 8.64C168.892 9.472 168.724 10.576 168.388 11.952L166.996 18H165.22L166.612 12.024C166.9 10.712 167.044 9.752 167.044 9.144C167.044 7.944 166.508 7.344 165.436 7.344C164.652 7.344 163.692 7.928 162.556 9.096C162.3 9.368 162.092 9.6 161.932 9.792L161.716 10.056L159.892 18H158.092L162.076 0.767999H163.876L162.172 8.112C162.316 7.936 162.508 7.72 162.748 7.464C162.988 7.192 163.444 6.84 164.116 6.408C164.804 5.976 165.452 5.76 166.06 5.76ZM170.068 18L172.828 6H174.628L171.844 18H170.068ZM173.38 3.504L173.908 1.344H175.708L175.204 3.504H173.38ZM176.814 18H175.014L178.998 0.767999H180.798L178.47 10.8L180.006 10.728L184.35 6H186.438L181.35 11.568L183.63 18H181.734L179.718 12.264L178.11 12.312L176.814 18Z" fill="#EFF1F3"/>
<path d="M194.869 11.928L187.789 8.952V6.288L197.629 10.896V13.056L187.789 17.736V15.048L194.869 11.928Z" fill="#B94F25"/>
</svg>
